<svg width="24" height="24" viewBox="0 0 24 24" fill="none" xmlns="http://www.w3.org/2000/svg">
<mask id="mask0_31_76" style="mask-type:alpha" maskUnits="userSpaceOnUse" x="0" y="0" width="24" height="24">
<rect y="24" width="24" height="24" transform="rotate(-90 0 24)" fill="#D9D9D9"/>
</mask>
<g mask="url(#mask0_31_76)">
<path d="M17.5 16.5L17.5 6L16 6L16 16.5C16 17.6 15.6083 18.5417 14.825 19.325C14.0417 20.1083 13.1 20.5 12 20.5C10.9 20.5 9.95833 20.1083 9.175 19.325C8.39167 18.5417 8 17.6 8 16.5L8 6C8 5.3 8.24167 4.70833 8.725 4.225C9.20833 3.74167 9.8 3.5 10.5 3.5C11.2 3.5 11.7917 3.74167 12.275 4.225C12.7583 4.70833 13 5.3 13 6L13 15.5C13 15.7833 12.904 16.0207 12.712 16.212C12.5207 16.404 12.2833 16.5 12 16.5C11.7167 16.5 11.479 16.404 11.287 16.212C11.0957 16.0207 11 15.7833 11 15.5L11 6L9.5 6L9.5 15.5C9.5 16.2 9.74167 16.7917 10.225 17.275C10.7083 17.7583 11.3 18 12 18C12.7 18 13.2917 17.7583 13.775 17.275C14.2583 16.7917 14.5 16.2 14.5 15.5L14.5 6C14.5 4.9 14.1083 3.95833 13.325 3.175C12.5417 2.39167 11.6 2 10.5 2C9.4 2 8.45833 2.39167 7.675 3.175C6.89167 3.95833 6.5 4.9 6.5 6L6.5 16.5C6.5 18.0333 7.03333 19.3333 8.1 20.4C9.16667 21.4667 10.4667 22 12 22C13.5333 22 14.8333 21.4667 15.9 20.4C16.9667 19.3333 17.5 18.0333 17.5 16.5Z" fill="#1C1B1F"/>
</g>
</svg>
