<svg width="49" height="49" viewBox="0 0 49 49" fill="none" xmlns="http://www.w3.org/2000/svg">
<mask id="mask0_241_19" style="mask-type:alpha" maskUnits="userSpaceOnUse" x="0" y="0" width="49" height="49">
<rect x="0.893555" y="0.5" width="48" height="48" fill="#D9D9D9"/>
</mask>
<g mask="url(#mask0_241_19)">
<path d="M38.4435 18.7L30.6935 10.95L34.1935 7.44998C34.7601 6.88331 35.4601 6.59998 36.2935 6.59998C37.1268 6.59998 37.8268 6.88331 38.3935 7.44998L41.9435 11C42.5101 11.5666 42.7935 12.2666 42.7935 13.1C42.7935 13.9333 42.5101 14.6333 41.9435 15.2L38.4435 18.7ZM6.89346 42.5V34.7L16.5935 25L5.54346 13.9L14.2435 5.09998L25.3935 16.25L30.6935 10.95L38.4435 18.7L33.1435 24L44.2935 35.15L35.5435 43.8L24.4435 32.75L14.6935 42.5H6.89346ZM18.7435 22.85L23.2435 18.35L19.5935 14.7L17.1935 17.1L15.0935 15L17.4935 12.6L14.2935 9.39998L9.79346 13.9L18.7435 22.85ZM35.4435 39.6L39.9435 35.1L36.7435 31.9L34.3435 34.3L32.2435 32.2L34.6435 29.8L30.9935 26.15L26.4935 30.65L35.4435 39.6ZM9.89346 39.5H13.3935L34.1435 18.75L30.6435 15.25L9.89346 36V39.5Z" fill="#291554"/>
</g>
</svg>
