<svg width="16" height="16" viewBox="0 0 16 16" fill="none" xmlns="http://www.w3.org/2000/svg">
<path fill-rule="evenodd" clip-rule="evenodd" d="M3 6C4.65685 6 6 4.65685 6 3C6 1.34315 4.65685 0 3 0C1.34315 0 0 1.34315 0 3C0 4.65685 1.34315 6 3 6ZM13 6C14.6569 6 16 4.65685 16 3C16 1.34315 14.6569 0 13 0C11.3431 0 10 1.34315 10 3C10 4.65685 11.3431 6 13 6ZM11 8C11 9.65685 9.65685 11 8 11C6.34315 11 5 9.65685 5 8C5 6.34315 6.34315 5 8 5C9.65685 5 11 6.34315 11 8ZM6 13C6 14.6569 4.65685 16 3 16C1.34315 16 0 14.6569 0 13C0 11.3431 1.34315 10 3 10C4.65685 10 6 11.3431 6 13ZM16 13C16 14.6569 14.6569 16 13 16C11.3431 16 10 14.6569 10 13C10 11.3431 11.3431 10 13 10C14.6569 10 16 11.3431 16 13Z" fill="white"/>
</svg>
