<svg width="24" height="24" viewBox="0 0 24 24" fill="none" xmlns="http://www.w3.org/2000/svg">
<mask id="mask0_18_1017" style="mask-type:alpha" maskUnits="userSpaceOnUse" x="0" y="0" width="24" height="24">
<rect width="24" height="24" fill="#D9D9D9"/>
</mask>
<g mask="url(#mask0_18_1017)">
<path d="M13.1 23C11.7 23 10.3873 22.7333 9.162 22.2C7.93733 21.6667 6.871 20.946 5.963 20.038C5.05433 19.1293 4.33333 18.0623 3.8 16.837C3.26667 15.6123 3 14.3 3 12.9C3 10.4667 3.775 8.32067 5.325 6.462C6.875 4.604 8.85 3.45 11.25 3C10.95 4.65 11.0417 6.26233 11.525 7.837C12.0083 9.41233 12.8417 10.7917 14.025 11.975C15.2083 13.1583 16.5877 13.9917 18.163 14.475C19.7377 14.9583 21.35 15.05 23 14.75C22.5667 17.15 21.4167 19.125 19.55 20.675C17.6833 22.225 15.5333 23 13.1 23Z" fill="#299983"/>
</g>
</svg>
