<svg width="49" height="49" viewBox="0 0 49 49" fill="none" xmlns="http://www.w3.org/2000/svg">
<mask id="mask0_242_45" style="mask-type:alpha" maskUnits="userSpaceOnUse" x="0" y="0" width="49" height="49">
<rect x="0.893555" y="0.5" width="48" height="48" fill="#D9D9D9"/>
</mask>
<g mask="url(#mask0_242_45)">
<path d="M11.6436 42.65C10.5102 42.65 9.39355 42.4583 8.29355 42.075C7.19355 41.6916 6.22689 41.0666 5.39355 40.2C6.56022 39.8 7.39355 39.2166 7.89355 38.45C8.39355 37.6833 8.64355 36.65 8.64355 35.35C8.64355 33.8833 9.15189 32.6416 10.1686 31.625C11.1852 30.6083 12.4269 30.1 13.8936 30.1C15.3602 30.1 16.6019 30.6083 17.6186 31.625C18.6352 32.6416 19.1436 33.8833 19.1436 35.35C19.1436 37.4833 18.4186 39.2333 16.9686 40.6C15.5186 41.9666 13.7436 42.65 11.6436 42.65ZM11.6436 39.65C12.8102 39.65 13.8519 39.2333 14.7686 38.4C15.6852 37.5666 16.1436 36.55 16.1436 35.35C16.1436 34.6833 15.9352 34.1416 15.5186 33.725C15.1019 33.3083 14.5602 33.1 13.8936 33.1C13.2269 33.1 12.6852 33.3083 12.2686 33.725C11.8519 34.1416 11.6436 34.6833 11.6436 35.35C11.6436 36.65 11.5019 37.6083 11.2186 38.225C10.9352 38.8416 10.4102 39.2166 9.64355 39.35C9.84355 39.3833 10.1769 39.4416 10.6436 39.525C11.1102 39.6083 11.4436 39.65 11.6436 39.65ZM23.1436 30.8L18.6436 26.05L37.4436 7.24998C37.9102 6.78331 38.4269 6.54164 38.9936 6.52498C39.5602 6.50831 40.0936 6.74998 40.5936 7.24998L42.0436 8.69998C42.5436 9.19998 42.7852 9.74164 42.7686 10.325C42.7519 10.9083 42.5102 11.4333 42.0436 11.9L23.1436 30.8Z" fill="#E03C71"/>
</g>
</svg>
