<svg width="49" height="49" viewBox="0 0 49 49" fill="none" xmlns="http://www.w3.org/2000/svg">
<mask id="mask0_242_69" style="mask-type:alpha" maskUnits="userSpaceOnUse" x="0" y="0" width="49" height="49">
<rect x="0.893677" y="0.5" width="48" height="48" fill="#D9D9D9"/>
</mask>
<g mask="url(#mask0_242_69)">
<path d="M28.8937 42.5C28.4937 42.5 28.1437 42.35 27.8437 42.05C27.5437 41.75 27.3937 41.4 27.3937 41C27.3937 40.5667 27.5437 40.2083 27.8437 39.925C28.1437 39.6417 28.4937 39.5 28.8937 39.5C30.8603 39.5 32.5187 39.1 33.8687 38.3C35.2187 37.5 35.8937 36.5667 35.8937 35.5C35.8937 34.7333 35.402 33.9833 34.4187 33.25C33.4353 32.5167 32.1103 31.95 30.4437 31.55L32.7937 29.2C34.8937 29.8333 36.4353 30.7083 37.4187 31.825C38.402 32.9417 38.8937 34.1667 38.8937 35.5C38.8937 37.7333 37.877 39.4583 35.8437 40.675C33.8103 41.8917 31.4937 42.5 28.8937 42.5ZM12.8937 27.8C10.7603 27.3333 9.22701 26.6 8.29368 25.6C7.36034 24.6 6.89368 23.5667 6.89368 22.5C6.89368 21.3333 7.32701 20.2833 8.19368 19.35C9.06034 18.4167 11.0603 17.3833 14.1937 16.25C16.3937 15.45 17.8103 14.8 18.4437 14.3C19.077 13.8 19.3937 13.2167 19.3937 12.55C19.3937 11.7167 19.027 11 18.2937 10.4C17.5603 9.8 16.427 9.5 14.8937 9.5C13.9937 9.5 13.227 9.61667 12.5937 9.85C11.9603 10.0833 11.3937 10.45 10.8937 10.95C10.627 11.2167 10.2853 11.375 9.86868 11.425C9.45201 11.475 9.07701 11.3667 8.74368 11.1C8.37701 10.8333 8.18534 10.5 8.16868 10.1C8.15201 9.7 8.27701 9.35 8.54368 9.05C9.11034 8.31667 9.96034 7.70833 11.0937 7.225C12.227 6.74167 13.4937 6.5 14.8937 6.5C17.1603 6.5 18.977 7.04167 20.3437 8.125C21.7103 9.20833 22.3937 10.6833 22.3937 12.55C22.3937 13.9167 21.9187 15.075 20.9687 16.025C20.0187 16.975 18.1603 17.9667 15.3937 19C13.1603 19.8333 11.6853 20.4917 10.9687 20.975C10.252 21.4583 9.89368 21.9667 9.89368 22.5C9.89368 23.0333 10.3437 23.5417 11.2437 24.025C12.1437 24.5083 13.4937 24.9667 15.2937 25.4L12.8937 27.8ZM37.6937 20.1L31.2937 13.7L33.5437 11.45C34.1437 10.85 34.8103 10.55 35.5437 10.55C36.277 10.55 36.9437 10.85 37.5437 11.45L39.9437 13.85C40.5437 14.45 40.8437 15.1167 40.8437 15.85C40.8437 16.5833 40.5437 17.25 39.9437 17.85L37.6937 20.1ZM11.8937 39.5H13.9937L31.2437 22.25L29.1437 20.15L11.8937 37.4V39.5ZM8.89368 42.5V36.1L29.1437 15.85L35.5437 22.25L15.2937 42.5H8.89368Z" fill="#299983"/>
</g>
</svg>
