<svg width="49" height="49" viewBox="0 0 49 49" fill="none" xmlns="http://www.w3.org/2000/svg">
<mask id="mask0_242_56" style="mask-type:alpha" maskUnits="userSpaceOnUse" x="0" y="0" width="49" height="49">
<rect x="0.893555" y="0.5" width="48" height="48" fill="#D9D9D9"/>
</mask>
<g mask="url(#mask0_242_56)">
<path d="M18.0936 33.7L8.89355 24.5L18.0936 15.3L20.1936 17.5L13.1936 24.5L20.1936 31.5L18.0936 33.7ZM10.8936 35.2H13.8936V39H35.8936V35.2H38.8936V43.5C38.8936 44.3 38.5936 45 37.9936 45.6C37.3936 46.2 36.6936 46.5 35.8936 46.5H13.8936C13.0936 46.5 12.3936 46.2 11.7936 45.6C11.1936 45 10.8936 44.3 10.8936 43.5V35.2ZM13.8936 13.2H10.8936V5.5C10.8936 4.7 11.1936 4 11.7936 3.4C12.3936 2.8 13.0936 2.5 13.8936 2.5H35.8936C36.6936 2.5 37.3936 2.8 37.9936 3.4C38.5936 4 38.8936 4.7 38.8936 5.5V13.2H35.8936V10H13.8936V13.2ZM13.8936 42V43.5H35.8936V42H13.8936ZM13.8936 7H35.8936V5.5H13.8936V7ZM31.6936 33.7L29.5936 31.5L36.5936 24.5L29.5936 17.5L31.6936 15.3L40.8936 24.5L31.6936 33.7Z" fill="#F96233"/>
</g>
</svg>
