<svg width="24" height="24" viewBox="0 0 24 24" fill="none" xmlns="http://www.w3.org/2000/svg">
<mask id="mask0_18_35" style="mask-type:alpha" maskUnits="userSpaceOnUse" x="0" y="0" width="24" height="24">
<rect width="24" height="24" fill="#D9D9D9"/>
</mask>
<g mask="url(#mask0_18_35)">
<path d="M10 6V2H12V6H10ZM16.65 8.75L15.275 7.375L18.075 4.5L19.475 5.925L16.65 8.75ZM18 14V12H22V14H18ZM10 24V20H12V24H10ZM5.35 8.7L2.5 5.925L3.925 4.525L6.75 7.35L5.35 8.7ZM18.05 21.5L15.275 18.625L16.625 17.275L19.475 20.025L18.05 21.5ZM0 14V12H4V14H0ZM3.925 21.5L2.525 20.075L5.325 17.275L6.05 17.95L6.775 18.65L3.925 21.5ZM11 19C9.33333 19 7.91667 18.4167 6.75 17.25C5.58333 16.0833 5 14.6667 5 13C5 11.3333 5.58333 9.91667 6.75 8.75C7.91667 7.58333 9.33333 7 11 7C12.6667 7 14.0833 7.58333 15.25 8.75C16.4167 9.91667 17 11.3333 17 13C17 14.6667 16.4167 16.0833 15.25 17.25C14.0833 18.4167 12.6667 19 11 19Z" fill="#FEC230"/>
</g>
</svg>
