<svg width="111" height="110" viewBox="0 0 111 110" fill="none" xmlns="http://www.w3.org/2000/svg">
<path d="M46.2854 99.3455C47.0395 99.4913 47.6533 99.7933 48.1269 100.252C48.5911 100.716 48.8685 101.283 48.959 101.953L48.1724 102.228C48.1219 101.689 47.9245 101.235 47.5801 100.867C47.2342 100.507 46.7471 100.266 46.1187 100.144C45.5061 100.026 45.0051 100.067 44.6157 100.269C44.2169 100.477 43.9742 100.805 43.8876 101.253C43.8041 101.685 43.8981 102.041 44.1698 102.322C44.4414 102.603 44.9158 102.931 45.5928 103.306C46.3943 103.754 46.9157 104.091 47.1572 104.317C47.7127 104.816 47.9213 105.423 47.783 106.137C47.6478 106.836 47.298 107.339 46.7336 107.646C46.1676 107.96 45.5272 108.048 44.8125 107.91C44.1684 107.785 43.6434 107.508 43.2374 107.079C42.83 106.658 42.5625 106.167 42.435 105.604L43.2053 105.35C43.4061 106.334 43.9935 106.92 44.9674 107.108C45.478 107.207 45.9146 107.161 46.2774 106.971C46.6402 106.78 46.8649 106.461 46.9515 106.013C47.0305 105.605 46.9483 105.271 46.7051 105.012C46.4618 104.753 46.0347 104.455 45.4238 104.117C45.1451 103.957 44.9474 103.841 44.8309 103.77C44.705 103.705 44.5301 103.598 44.3064 103.448C44.0733 103.305 43.9054 103.183 43.8028 103.082C43.6986 102.989 43.577 102.859 43.4379 102.694C43.2894 102.535 43.1927 102.381 43.1478 102.234C43.0936 102.093 43.0572 101.923 43.0387 101.724C43.0108 101.531 43.0174 101.329 43.0584 101.117C43.1936 100.418 43.5574 99.9057 44.15 99.5803C44.7411 99.2627 45.4529 99.1844 46.2854 99.3455Z" fill="black"/>
<path d="M37.7673 96.6239C38.6038 96.9666 39.1859 97.5293 39.5137 98.312C39.8384 99.1021 39.8324 99.908 39.4957 100.73C39.1591 101.551 38.5994 102.126 37.8167 102.454C37.031 102.789 36.2199 102.785 35.3834 102.442C34.8356 102.218 34.3979 101.883 34.0703 101.438C33.7397 101 33.5654 100.518 33.5476 99.9915L34.2882 99.8929C34.2998 100.287 34.4327 100.648 34.687 100.977C34.9308 101.31 35.26 101.562 35.6746 101.732C36.289 101.984 36.8951 101.981 37.493 101.725C38.0878 101.476 38.5111 101.044 38.7629 100.429C39.0146 99.815 39.0174 99.2067 38.7714 98.6044C38.5223 98.0096 38.0906 97.5863 37.4761 97.3346C37.0616 97.1647 36.652 97.1093 36.2474 97.1683C35.8398 97.2347 35.4752 97.3966 35.1537 97.6539L34.6885 97.0484C35.1 96.6982 35.5809 96.4846 36.1312 96.4075C36.6815 96.3303 37.2269 96.4025 37.7673 96.6239Z" fill="black"/>
<path d="M28.8656 97.7169C28.1662 98.1369 27.4375 98.1082 26.6793 97.6307L27.0885 96.9808C27.5488 97.2707 28.0166 97.3761 28.4917 97.2971C28.9668 97.2182 29.3877 96.8876 29.7543 96.3054L31.5318 93.4823L32.202 93.9043L29.0051 98.9817L28.3349 98.5597L28.8656 97.7169Z" fill="black"/>
<path d="M22.5547 87.2503C23.4084 87.22 24.1591 87.5025 24.8071 88.098C25.455 88.6935 25.8027 89.4205 25.8503 90.2791C25.8865 91.1382 25.6042 91.8946 25.0033 92.5485C24.4024 93.2023 23.6751 93.5444 22.8215 93.5747C21.9565 93.6055 21.2 93.3232 20.5521 92.7277C19.9042 92.1323 19.5621 91.405 19.5259 90.5459C19.4783 89.6873 19.755 88.9311 20.3559 88.2773C20.9568 87.6235 21.6897 87.2811 22.5547 87.2503ZM25.0615 90.3039C25.0343 89.6596 24.7763 89.1128 24.2874 88.6635C23.7985 88.2142 23.2319 88.0031 22.5876 88.0303C21.9379 88.0633 21.3883 88.3243 20.939 88.8132C20.4897 89.3021 20.2787 89.8687 20.3058 90.513C20.3276 91.1632 20.5829 91.713 21.0718 92.1623C21.5607 92.6116 22.13 92.8197 22.7797 92.7866C23.424 92.7595 23.9708 92.5014 24.4202 92.0125C24.8695 91.5236 25.0833 90.9541 25.0615 90.3039Z" fill="black"/>
<path d="M20.0042 83.04L13.0543 88.3726L12.5722 87.7443L19.522 82.4117L20.0042 83.04Z" fill="black"/>
<path d="M16.6581 78.1066L9.06741 82.4791L8.67209 81.7928L16.2628 77.4203L16.6581 78.1066Z" fill="black"/>
<path d="M6.20123 65.3497L6.61599 67.0272L10.1457 66.1544C10.4641 66.0757 10.6778 65.9569 10.7869 65.7981C10.8882 65.6412 10.912 65.4376 10.8583 65.1871C10.7969 64.9386 10.7123 64.6299 10.6046 64.2609L11.2803 64.0939C11.6062 64.8786 11.6996 65.5065 11.5606 65.9777C11.4197 66.441 11.0115 66.7562 10.3358 66.9233L6.80609 67.796L7.10852 69.0192L6.36297 69.2035L6.06054 67.9804L4.66263 68.326L4.23955 67.6148L5.87044 67.2115L5.45568 65.534L6.20123 65.3497Z" fill="black"/>
<path d="M9.61626 54.9362C10.2475 55.5116 10.5864 56.2388 10.6329 57.1175C10.6793 57.9963 10.4193 58.7591 9.85262 59.4059C9.27757 60.0452 8.54667 60.3883 7.65991 60.4351C6.77315 60.482 6.01413 60.2178 5.38286 59.6423C4.74319 59.0592 4.40011 58.3283 4.35364 57.4496C4.30717 56.5708 4.57146 55.8118 5.14651 55.1725C5.71314 54.5257 6.43984 54.1788 7.3266 54.132C8.21336 54.0851 8.97658 54.3531 9.61626 54.9362ZM9.27161 58.8719C9.70289 58.3924 9.901 57.8212 9.86594 57.1581C9.83088 56.495 9.57362 55.9478 9.09418 55.5165C8.60675 55.0857 8.0315 54.8878 7.36842 54.9229C6.70535 54.9579 6.15817 55.2152 5.72689 55.6946C5.28761 56.1745 5.08551 56.7459 5.12057 57.409C5.15563 58.0721 5.41688 58.6191 5.90431 59.0499C6.38376 59.4812 6.95501 59.6793 7.61809 59.6443C8.28116 59.6092 8.83233 59.3517 9.27161 58.8719Z" fill="black"/>
<path d="M11.2528 43.1969L12.4003 39.2815L13.1603 39.5043L11.7766 44.2257L3.71564 41.8633L5.08245 37.1995L5.84248 37.4222L4.71191 41.28L7.5678 42.1169L8.614 38.5471L9.37403 38.7698L8.32783 42.3397L11.2528 43.1969Z" fill="black"/>
<path d="M17.081 31.4536L16.6409 32.2932L13.5823 32.8033L14.9024 35.6091L14.4622 36.4487L12.8017 32.9225L9.22067 33.5246L9.66086 32.685L12.4663 32.2183L11.2545 29.6454L11.6947 28.8058L13.2419 32.0829L17.081 31.4536Z" fill="black"/>
<path d="M16.612 21.8627C17.1562 21.2019 17.8536 20.8332 18.7044 20.7566C19.5602 20.6738 20.3278 20.9121 21.0071 21.4715C21.6864 22.0309 22.0674 22.7386 22.1503 23.5944C22.2382 24.4441 22.01 25.1993 21.4659 25.8601C20.7895 26.6814 19.9362 27.0254 18.906 26.8921L21.6664 29.1654L21.1629 29.7767L14.6787 24.4368L15.1822 23.8254L16.09 24.573C15.7616 23.5875 15.9356 22.684 16.612 21.8627ZM19.2389 26.2802C19.8808 26.2181 20.4128 25.9307 20.8349 25.4182C21.257 24.9056 21.437 24.3284 21.3749 23.6865C21.3066 23.0395 21.0162 22.505 20.5036 22.0829C19.9911 21.6608 19.4138 21.4808 18.7719 21.5429C18.1239 21.5999 17.5888 21.8847 17.1667 22.3973C16.7446 22.9098 16.5677 23.4896 16.636 24.1366C16.6981 24.7784 16.9854 25.3104 17.498 25.7325C18.0105 26.1547 18.5908 26.3372 19.2389 26.2802Z" fill="black"/>
<path d="M25.9887 21.1137L20.2867 14.4636L20.8879 13.948L26.59 20.5982L25.9887 21.1137Z" fill="black"/>
<path d="M34.5614 14.2925C34.3448 15.1188 33.8582 15.7566 33.1015 16.2058C32.3448 16.655 31.5484 16.7788 30.7124 16.5773C29.8793 16.3648 29.236 15.8768 28.7827 15.1132C28.3295 14.3496 28.2111 13.5547 28.4276 12.7284C28.647 11.8911 29.135 11.2479 29.8917 10.7987C30.6484 10.3495 31.4434 10.2311 32.2766 10.4436C33.1125 10.6451 33.7572 11.1276 34.2105 11.8912C34.6637 12.6548 34.7807 13.4552 34.5614 14.2925ZM30.9157 15.8147C31.5405 15.9741 32.1385 15.8843 32.7094 15.5453C33.2804 15.2064 33.6456 14.7245 33.8049 14.0996C33.9602 13.4678 33.8684 12.8665 33.5294 12.2955C33.1905 11.7245 32.7086 11.3594 32.0837 11.2C31.4547 11.0338 30.8547 11.1201 30.2838 11.4591C29.7128 11.798 29.3497 12.2834 29.1944 12.9151C29.035 13.54 29.1248 14.138 29.4638 14.7089C29.8027 15.2799 30.2867 15.6485 30.9157 15.8147Z" fill="black"/>
<path d="M38.3143 8.09584C38.4068 7.28538 38.8732 6.72468 39.7135 6.41375L39.9801 7.13402C39.4699 7.3228 39.1015 7.62971 38.8749 8.05475C38.6483 8.4798 38.6544 9.01494 38.8932 9.66019L40.0508 12.7889L39.308 13.0637L37.2259 7.43658L37.9687 7.16174L38.3143 8.09584Z" fill="black"/>
<path d="M47.3096 4.54156C48.1843 4.38863 48.9441 4.5766 49.5888 5.10548C50.24 5.62509 50.6393 6.3065 50.7867 7.14972C50.8019 7.2364 50.8154 7.35993 50.8271 7.52029L45.6378 8.42751C45.8214 9.01265 46.1569 9.44534 46.6444 9.72556C47.1385 9.99653 47.7007 10.0769 48.3312 9.96669C48.7803 9.88816 49.1506 9.73002 49.4421 9.49229C49.74 9.24529 49.9455 8.9576 50.0586 8.62921L50.8145 8.91125C50.6275 9.37438 50.3307 9.76736 49.9242 10.0902C49.5177 10.413 49.0269 10.6247 48.4516 10.7253C47.5217 10.8878 46.7142 10.7285 46.0291 10.2473C45.344 9.76612 44.9229 9.07633 44.7658 8.17796C44.6115 7.29534 44.7704 6.50823 45.2423 5.81662C45.7143 5.12502 46.4034 4.69999 47.3096 4.54156ZM47.4419 5.29808C46.8272 5.40554 46.3434 5.68097 45.9905 6.12438C45.6441 6.55852 45.4824 7.07406 45.5056 7.67099L49.9147 6.90016C49.7271 6.29138 49.402 5.84875 48.9395 5.57227C48.4769 5.29579 47.9777 5.2044 47.4419 5.29808Z" fill="black"/>
<path d="M63.9327 10.8958C63.1751 10.7697 62.5536 10.4839 62.0681 10.0382C61.5919 9.58591 61.2997 9.02639 61.1917 8.35962L61.9708 8.06346C62.0355 8.60135 62.2447 9.04976 62.5986 9.4087C62.9538 9.75974 63.4471 9.98778 64.0784 10.0928C64.694 10.1952 65.1937 10.1404 65.5777 9.92858C65.9709 9.71014 66.2049 9.376 66.2797 8.92619C66.3519 8.49215 66.2485 8.1384 65.9696 7.86492C65.6907 7.59145 65.2079 7.27596 64.5213 6.91844C63.7084 6.49126 63.1783 6.16788 62.9309 5.94833C62.3626 5.46451 62.1382 4.86354 62.2576 4.14541C62.3745 3.44306 62.711 2.93134 63.2672 2.61026C63.8248 2.28129 64.4626 2.17653 65.1807 2.29599C65.8278 2.40363 66.3599 2.6665 66.777 3.0846C67.1953 3.49481 67.4756 3.97937 67.6178 4.53829L66.8544 4.81274C66.6279 3.83431 66.0254 3.26371 65.0468 3.10093C64.5339 3.0156 64.0986 3.07295 63.7409 3.27297C63.3832 3.47299 63.167 3.79791 63.0922 4.24773C63.0239 4.65809 63.1148 4.98949 63.3647 5.24193C63.6147 5.49437 64.0494 5.7816 64.669 6.10363C64.9518 6.2561 65.1524 6.36652 65.2708 6.43487C65.3984 6.49664 65.576 6.59917 65.8036 6.74246C66.0403 6.87916 66.2113 6.99682 66.3166 7.09543C66.4232 7.18614 66.5481 7.31236 66.6915 7.47408C66.8442 7.62923 66.9448 7.77979 66.9935 7.92576C67.0514 8.06515 67.0923 8.23414 67.116 8.43273C67.1489 8.62473 67.1477 8.82727 67.1122 9.04035C66.9954 9.7427 66.6451 10.2643 66.0612 10.6051C65.4787 10.938 64.7692 11.0349 63.9327 10.8958Z" fill="black"/>
<path d="M72.5192 13.3932C71.674 13.0725 71.0773 12.5253 70.7292 11.7514C70.3839 10.9701 70.3688 10.1644 70.6838 9.33411C70.9988 8.50386 71.5432 7.91467 72.317 7.56653C73.0937 7.21092 73.9046 7.19346 74.7498 7.51414C75.3033 7.72415 75.7496 8.04751 76.0888 8.48421C76.4307 8.91344 76.6176 9.39076 76.6493 9.91617L75.9114 10.0341C75.8895 9.64076 75.7472 9.28299 75.4844 8.96081C75.2319 8.63399 74.8962 8.39112 74.4774 8.23219C73.8566 7.99665 73.2507 8.0149 72.6597 8.28696C72.0716 8.55155 71.6598 8.99425 71.4243 9.61506C71.1887 10.2359 71.2018 10.8441 71.4635 11.4397C71.7281 12.0278 72.1708 12.4396 72.7916 12.6751C73.2105 12.8341 73.6214 12.8787 74.0243 12.8091C74.43 12.732 74.7902 12.5607 75.1049 12.295L75.5858 12.8882C75.1836 13.249 74.7085 13.4752 74.1604 13.5667C73.6123 13.6582 73.0652 13.6004 72.5192 13.3932Z" fill="black"/>
<path d="M81.3892 12.0673C82.0773 11.6291 82.8066 11.6387 83.577 12.0961L83.185 12.7565C82.7172 12.4788 82.2469 12.3857 81.774 12.4771C81.3011 12.5685 80.889 12.91 80.5378 13.5016L78.8349 16.3702L78.1539 15.966L81.2166 10.8065L81.8977 11.2108L81.3892 12.0673Z" fill="black"/>
<path d="M87.9722 22.3649C87.1196 22.4176 86.3616 22.1548 85.6983 21.5765C85.035 20.9982 84.6684 20.2805 84.5983 19.4235C84.5396 18.5657 84.802 17.8021 85.3856 17.1327C85.9691 16.4634 86.6872 16.1024 87.5397 16.0497C88.4036 15.9962 89.1672 16.2586 89.8305 16.8369C90.4938 17.4152 90.8548 18.1332 90.9136 18.9911C90.9836 19.8481 90.7268 20.6113 90.1433 21.2807C89.5597 21.95 88.836 22.3114 87.9722 22.3649ZM85.3862 19.378C85.4303 20.0214 85.7025 20.5613 86.203 20.9976C86.7035 21.434 87.2755 21.6301 87.9188 21.5861C88.5675 21.536 89.11 21.2607 89.5463 20.7602C89.9827 20.2597 90.1788 19.6878 90.1347 19.0444C90.096 18.395 89.8263 17.8521 89.3258 17.4158C88.8253 16.9794 88.2508 16.7863 87.6021 16.8364C86.9587 16.8804 86.4189 17.1527 85.9825 17.6532C85.5462 18.1537 85.3474 18.7286 85.3862 19.378Z" fill="black"/>
<path d="M90.6322 26.5069L97.4399 20.994L97.9384 21.6095L91.1306 27.1224L90.6322 26.5069Z" fill="black"/>
<path d="M94.1063 31.351L101.58 26.7811L101.993 27.4568L94.5195 32.0267L94.1063 31.351Z" fill="black"/>
<path d="M104.894 43.8294L104.435 42.1634L100.93 43.1283C100.614 43.2154 100.403 43.3397 100.298 43.5013C100.201 43.6608 100.183 43.865 100.243 44.114C100.311 44.3608 100.403 44.6672 100.521 45.0332L99.8496 45.2179C99.5033 44.442 99.3934 43.8167 99.52 43.3421C99.6487 42.8752 100.049 42.5494 100.72 42.3647L104.225 41.3998L103.891 40.185L104.631 39.9811L104.966 41.196L106.354 40.8138L106.796 41.5137L105.176 41.9596L105.634 43.6256L104.894 43.8294Z" fill="black"/>
<path d="M101.753 54.3289C101.107 53.7702 100.749 53.0522 100.68 52.1749C100.61 51.2977 100.85 50.5283 101.4 49.8669C101.958 49.2128 102.679 48.8507 103.565 48.7806C104.45 48.7104 105.216 48.9547 105.862 49.5135C106.516 50.0795 106.879 50.8012 106.948 51.6785C107.017 52.5557 106.773 53.3214 106.215 53.9755C105.666 54.637 104.948 55.0027 104.063 55.0728C103.178 55.143 102.408 54.895 101.753 54.3289ZM101.994 50.3855C101.576 50.8761 101.393 51.4524 101.445 52.1143C101.498 52.7762 101.769 53.3165 102.26 53.735C102.758 54.153 103.339 54.3357 104 54.2833C104.662 54.2309 105.203 53.9594 105.621 53.4688C106.048 52.9776 106.235 52.401 106.182 51.7391C106.13 51.0772 105.854 50.5372 105.356 50.1193C104.865 49.7007 104.289 49.5177 103.627 49.5701C102.965 49.6225 102.421 49.8943 101.994 50.3855Z" fill="black"/>
<path d="M100.425 66.107L99.3802 70.0511L98.6146 69.8483L99.8741 65.0923L107.994 67.2426L106.75 71.9407L105.984 71.7379L107.014 67.8519L104.137 67.09L103.184 70.6861L102.419 70.4833L103.371 66.8873L100.425 66.107Z" fill="black"/>
<path d="M94.906 77.999L95.3241 77.1482L98.3682 76.5581L96.9751 73.7878L97.3931 72.937L99.1454 76.4185L102.709 75.7228L102.291 76.5737L99.4991 77.1137L100.778 79.654L100.36 80.5048L98.7274 77.2693L94.906 77.999Z" fill="black"/>
<path d="M95.6264 87.5743C95.0997 88.2491 94.4122 88.636 93.5637 88.7349C92.7103 88.8401 91.9368 88.622 91.2431 88.0806C90.5493 87.5391 90.1499 86.8417 90.0446 85.9883C89.9345 85.1413 90.1428 84.3803 90.6694 83.7055C91.3241 82.8668 92.1681 82.5005 93.2014 82.6068L90.3824 80.4066L90.8697 79.7823L97.4916 84.9505L97.0043 85.5748L96.0772 84.8513C96.4313 85.8279 96.281 86.7355 95.6264 87.5743ZM92.8846 83.2272C92.2446 83.3061 91.7203 83.6073 91.3118 84.1308C90.9032 84.6542 90.7384 85.2359 90.8173 85.876C90.9026 86.5209 91.2069 87.0477 91.7303 87.4562C92.2538 87.8647 92.8355 88.0296 93.4756 87.9506C94.1219 87.8766 94.6493 87.5779 95.0579 87.0545C95.4664 86.531 95.6281 85.9468 95.5428 85.3019C95.4639 84.6618 95.1628 84.1376 94.6393 83.729C94.1159 83.3205 93.531 83.1532 92.8846 83.2272Z" fill="black"/>
<path d="M86.2725 88.5687L92.1469 95.0671L91.5593 95.5982L85.685 89.0998L86.2725 88.5687Z" fill="black"/>
<path d="M77.8816 95.6123C78.0764 94.7806 78.5461 94.1304 79.2908 93.6615C80.0355 93.1926 80.8283 93.0479 81.6693 93.2275C82.5078 93.418 83.1636 93.889 83.6367 94.6405C84.1098 95.3919 84.249 96.1835 84.0542 97.0152C83.8569 97.8579 83.3859 98.5137 82.6412 98.9826C81.8965 99.4515 81.1049 99.5906 80.2664 99.4001C79.4255 99.2205 78.7684 98.755 78.2953 98.0036C77.8222 97.2521 77.6842 96.4551 77.8816 95.6123ZM81.4861 93.9951C80.8573 93.8522 80.2619 93.9576 79.7 94.3114C79.1381 94.6652 78.7857 95.1565 78.6428 95.7853C78.5042 96.421 78.6117 97.0197 78.9655 97.5816C79.3193 98.1435 79.8106 98.4959 80.4395 98.6388C81.0726 98.7885 81.6701 98.6865 82.232 98.3327C82.7939 97.9789 83.1441 97.4842 83.2828 96.8486C83.4257 96.2197 83.3203 95.6244 82.9665 95.0625C82.6127 94.5006 82.1193 94.1448 81.4861 93.9951Z" fill="black"/>
<path d="M74.2923 101.905C74.221 102.718 73.7695 103.291 72.9376 103.623L72.6523 102.91C73.1574 102.708 73.5176 102.392 73.7329 101.961C73.9483 101.53 73.9282 100.995 73.6726 100.357L72.4334 97.2593L73.1687 96.9651L75.3976 102.536L74.6623 102.83L74.2923 101.905Z" fill="black"/>
<path d="M65.3931 105.694C64.5227 105.87 63.7583 105.702 63.0999 105.19C62.4353 104.688 62.0183 104.017 61.8488 103.178C61.8314 103.092 61.8147 102.968 61.7987 102.808L66.9625 101.765C66.7637 101.185 66.4169 100.762 65.9222 100.494C65.4212 100.236 64.8571 100.171 64.2298 100.297C63.7828 100.388 63.4167 100.555 63.1317 100.801C62.8403 101.055 62.6424 101.348 62.5379 101.68L61.7749 101.418C61.9498 100.95 62.2361 100.549 62.634 100.216C63.0319 99.8824 63.517 99.6579 64.0895 99.5423C65.0148 99.3554 65.8262 99.4935 66.5237 99.9566C67.2212 100.42 67.6602 101.098 67.8407 101.992C68.0181 102.87 67.88 103.661 67.4263 104.365C66.9726 105.069 66.2949 105.512 65.3931 105.694ZM65.2411 104.941C65.8527 104.818 66.3291 104.53 66.6703 104.077C67.0052 103.634 67.1533 103.114 67.1145 102.518L62.7271 103.404C62.9306 104.008 63.2672 104.442 63.7368 104.706C64.2064 104.971 64.7078 105.049 65.2411 104.941Z" fill="black"/>
</svg>
