<svg width="111" height="110" viewBox="0 0 111 110" fill="none" xmlns="http://www.w3.org/2000/svg">
<path d="M46.2852 99.3455C47.0393 99.4913 47.6531 99.7933 48.1267 100.252C48.5909 100.716 48.8683 101.283 48.9588 101.953L48.1722 102.228C48.1217 101.689 47.9242 101.235 47.5799 100.867C47.234 100.507 46.7469 100.266 46.1185 100.144C45.5059 100.026 45.0048 100.067 44.6154 100.269C44.2167 100.477 43.974 100.805 43.8874 101.253C43.8039 101.685 43.8979 102.041 44.1696 102.322C44.4412 102.603 44.9155 102.931 45.5926 103.306C46.394 103.754 46.9155 104.091 47.157 104.317C47.7124 104.816 47.921 105.423 47.7828 106.137C47.6476 106.836 47.2978 107.339 46.7333 107.646C46.1674 107.96 45.527 108.048 44.8122 107.91C44.1682 107.785 43.6432 107.508 43.2372 107.079C42.8298 106.658 42.5623 106.167 42.4347 105.604L43.2051 105.35C43.4059 106.334 43.9932 106.92 44.9672 107.108C45.4777 107.207 45.9144 107.161 46.2772 106.971C46.64 106.78 46.8647 106.461 46.9512 106.013C47.0302 105.605 46.9481 105.271 46.7048 105.012C46.4616 104.753 46.0345 104.455 45.4236 104.117C45.1449 103.957 44.9472 103.841 44.8307 103.77C44.7047 103.705 44.5299 103.598 44.3062 103.448C44.073 103.305 43.9052 103.183 43.8025 103.082C43.6984 102.989 43.5768 102.859 43.4377 102.694C43.2892 102.535 43.1925 102.381 43.1476 102.234C43.0934 102.093 43.057 101.923 43.0385 101.724C43.0106 101.531 43.0171 101.329 43.0581 101.117C43.1933 100.418 43.5572 99.9057 44.1498 99.5803C44.7408 99.2627 45.4527 99.1844 46.2852 99.3455Z" fill="white"/>
<path d="M37.7674 96.6239C38.6039 96.9666 39.186 97.5293 39.5137 98.312C39.8384 99.1021 39.8325 99.908 39.4958 100.73C39.1591 101.551 38.5995 102.126 37.8168 102.454C37.0311 102.789 36.22 102.785 35.3835 102.442C34.8357 102.218 34.398 101.883 34.0704 101.438C33.7398 101 33.5655 100.518 33.5476 99.9915L34.2883 99.8929C34.2999 100.287 34.4328 100.648 34.687 100.977C34.9309 101.31 35.2601 101.562 35.6746 101.732C36.2891 101.984 36.8952 101.981 37.4931 101.725C38.0879 101.476 38.5112 101.044 38.7629 100.429C39.0147 99.815 39.0175 99.2067 38.7715 98.6044C38.5224 98.0096 38.0906 97.5863 37.4762 97.3346C37.0616 97.1647 36.6521 97.1093 36.2475 97.1683C35.8399 97.2347 35.4753 97.3966 35.1538 97.6539L34.6886 97.0484C35.1001 96.6982 35.581 96.4846 36.1313 96.4075C36.6816 96.3303 37.227 96.4025 37.7674 96.6239Z" fill="white"/>
<path d="M28.8654 97.7169C28.1661 98.1369 27.4373 98.1082 26.6791 97.6307L27.0883 96.9808C27.5486 97.2707 28.0164 97.3761 28.4915 97.2971C28.9667 97.2182 29.3875 96.8876 29.7541 96.3054L31.5316 93.4823L32.2018 93.9043L29.0049 98.9817L28.3347 98.5597L28.8654 97.7169Z" fill="white"/>
<path d="M22.5544 87.2503C23.408 87.22 24.1588 87.5025 24.8067 88.098C25.4547 88.6935 25.8024 89.4205 25.8499 90.2791C25.8862 91.1382 25.6038 91.8946 25.003 92.5485C24.4021 93.2023 23.6748 93.5444 22.8211 93.5747C21.9562 93.6055 21.1997 93.3232 20.5518 92.7277C19.9039 92.1323 19.5618 91.405 19.5255 90.5459C19.478 89.6873 19.7547 88.9311 20.3556 88.2773C20.9565 87.6235 21.6894 87.2811 22.5544 87.2503ZM25.0611 90.3039C25.034 89.6596 24.7759 89.1128 24.287 88.6635C23.7982 88.2142 23.2316 88.0031 22.5873 88.0303C21.9375 88.0633 21.388 88.3243 20.9387 88.8132C20.4894 89.3021 20.2783 89.8687 20.3055 90.513C20.3273 91.1632 20.5826 91.713 21.0715 92.1623C21.5604 92.6116 22.1297 92.8197 22.7794 92.7866C23.4237 92.7595 23.9705 92.5014 24.4198 92.0125C24.8691 91.5236 25.0829 90.9541 25.0611 90.3039Z" fill="white"/>
<path d="M20.0039 83.04L13.054 88.3726L12.5718 87.7443L19.5217 82.4117L20.0039 83.04Z" fill="white"/>
<path d="M16.658 78.1066L9.06731 82.4791L8.67199 81.7928L16.2627 77.4203L16.658 78.1066Z" fill="white"/>
<path d="M6.20132 65.3497L6.61608 67.0272L10.1458 66.1544C10.4642 66.0757 10.6779 65.9569 10.787 65.7981C10.8883 65.6412 10.9121 65.4376 10.8584 65.1871C10.797 64.9386 10.7124 64.6299 10.6047 64.2609L11.2804 64.0939C11.6062 64.8786 11.6997 65.5065 11.5607 65.9777C11.4198 66.441 11.0115 66.7562 10.3359 66.9233L6.80618 67.796L7.10861 69.0192L6.36306 69.2035L6.06063 67.9804L4.66273 68.326L4.23964 67.6148L5.87053 67.2115L5.45577 65.534L6.20132 65.3497Z" fill="white"/>
<path d="M9.61606 54.9362C10.2473 55.5116 10.5862 56.2388 10.6327 57.1175C10.6791 57.9963 10.4191 58.7591 9.85242 59.4059C9.27738 60.0452 8.54647 60.3883 7.65971 60.4351C6.77295 60.482 6.01394 60.2178 5.38267 59.6423C4.74299 59.0592 4.39991 58.3283 4.35344 57.4496C4.30697 56.5708 4.57126 55.8118 5.14631 55.1725C5.71294 54.5257 6.43964 54.1788 7.3264 54.132C8.21316 54.0851 8.97638 54.3531 9.61606 54.9362ZM9.27141 58.8719C9.70269 58.3924 9.90081 57.8212 9.86574 57.1581C9.83068 56.495 9.57343 55.9478 9.09398 55.5165C8.60655 55.0857 8.0313 54.8878 7.36823 54.9229C6.70515 54.9579 6.15797 55.2152 5.72669 55.6946C5.28741 56.1745 5.08531 56.7459 5.12037 57.409C5.15543 58.0721 5.41668 58.6191 5.90411 59.0499C6.38356 59.4812 6.95482 59.6793 7.61789 59.6443C8.28096 59.6092 8.83214 59.3517 9.27141 58.8719Z" fill="white"/>
<path d="M11.2527 43.1969L12.4002 39.2815L13.1602 39.5043L11.7765 44.2257L3.71556 41.8633L5.08237 37.1995L5.84241 37.4222L4.71184 41.28L7.56772 42.1169L8.61392 38.5471L9.37395 38.7698L8.32775 42.3397L11.2527 43.1969Z" fill="white"/>
<path d="M17.081 31.4536L16.6408 32.2932L13.5823 32.8033L14.9024 35.6091L14.4622 36.4487L12.8017 32.9225L9.22065 33.5246L9.66084 32.685L12.4663 32.2183L11.2544 29.6454L11.6946 28.8058L13.2419 32.0829L17.081 31.4536Z" fill="white"/>
<path d="M16.6116 21.8627C17.1558 21.2019 17.8533 20.8332 18.704 20.7566C19.5599 20.6738 20.3274 20.9121 21.0067 21.4715C21.686 22.0309 22.0671 22.7386 22.1499 23.5944C22.2378 24.4441 22.0097 25.1993 21.4655 25.8601C20.7891 26.6814 19.9358 27.0254 18.9056 26.8921L21.666 29.1654L21.1625 29.7767L14.6783 24.4368L15.1818 23.8254L16.0896 24.573C15.7612 23.5875 15.9352 22.684 16.6116 21.8627ZM19.2385 26.2802C19.8804 26.2181 20.4124 25.9307 20.8345 25.4182C21.2566 24.9056 21.4366 24.3284 21.3745 23.6865C21.3062 23.0395 21.0158 22.505 20.5033 22.0829C19.9907 21.6608 19.4135 21.4808 18.7716 21.5429C18.1235 21.5999 17.5884 21.8847 17.1663 22.3973C16.7442 22.9098 16.5673 23.4896 16.6356 24.1366C16.6977 24.7784 16.9851 25.3104 17.4976 25.7325C18.0102 26.1547 18.5905 26.3372 19.2385 26.2802Z" fill="white"/>
<path d="M25.9886 21.1137L20.2866 14.4636L20.8879 13.948L26.5899 20.5982L25.9886 21.1137Z" fill="white"/>
<path d="M34.5614 14.2925C34.3449 15.1188 33.8583 15.7566 33.1015 16.2058C32.3448 16.655 31.5485 16.7788 30.7125 16.5773C29.8793 16.3648 29.2361 15.8768 28.7828 15.1132C28.3295 14.3496 28.2112 13.5547 28.4277 12.7284C28.6471 11.8911 29.1351 11.2479 29.8918 10.7987C30.6485 10.3495 31.4435 10.2311 32.2766 10.4436C33.1126 10.6451 33.7572 11.1276 34.2105 11.8912C34.6638 12.6548 34.7808 13.4552 34.5614 14.2925ZM30.9157 15.8147C31.5406 15.9741 32.1385 15.8843 32.7095 15.5453C33.2805 15.2064 33.6457 14.7245 33.805 14.0996C33.9603 13.4678 33.8684 12.8665 33.5295 12.2955C33.1905 11.7245 32.7086 11.3594 32.0837 11.2C31.4548 11.0338 30.8548 11.1201 30.2838 11.4591C29.7129 11.798 29.3497 12.2834 29.1945 12.9151C29.0351 13.54 29.1249 14.138 29.4639 14.7089C29.8028 15.2799 30.2868 15.6485 30.9157 15.8147Z" fill="white"/>
<path d="M38.3141 8.09584C38.4066 7.28538 38.873 6.72468 39.7133 6.41375L39.9799 7.13402C39.4697 7.3228 39.1013 7.62971 38.8747 8.05475C38.6481 8.4798 38.6542 9.01494 38.893 9.66019L40.0506 12.7889L39.3078 13.0637L37.2257 7.43658L37.9685 7.16174L38.3141 8.09584Z" fill="white"/>
<path d="M47.3095 4.54156C48.1842 4.38863 48.944 4.5766 49.5887 5.10548C50.2399 5.62509 50.6392 6.3065 50.7866 7.14972C50.8018 7.2364 50.8152 7.35993 50.827 7.52029L45.6377 8.42751C45.8212 9.01265 46.1568 9.44534 46.6443 9.72556C47.1384 9.99653 47.7006 10.0769 48.331 9.96669C48.7802 9.88816 49.1505 9.73002 49.4419 9.49229C49.7399 9.24529 49.9454 8.9576 50.0585 8.62921L50.8144 8.91125C50.6273 9.37438 50.3306 9.76736 49.9241 10.0902C49.5176 10.413 49.0268 10.6247 48.4515 10.7253C47.5216 10.8878 46.7141 10.7285 46.029 10.2473C45.3439 9.76612 44.9228 9.07633 44.7657 8.17796C44.6114 7.29534 44.7702 6.50823 45.2422 5.81662C45.7141 5.12502 46.4032 4.69999 47.3095 4.54156ZM47.4418 5.29808C46.8271 5.40554 46.3433 5.68097 45.9904 6.12438C45.644 6.55852 45.4823 7.07406 45.5055 7.67099L49.9146 6.90016C49.727 6.29138 49.4019 5.84875 48.9393 5.57227C48.4768 5.29579 47.9776 5.2044 47.4418 5.29808Z" fill="white"/>
<path d="M63.9326 10.8958C63.175 10.7697 62.5535 10.4839 62.068 10.0382C61.5918 9.58591 61.2996 9.02639 61.1916 8.35962L61.9707 8.06346C62.0353 8.60135 62.2446 9.04976 62.5985 9.4087C62.9537 9.75974 63.447 9.98778 64.0783 10.0928C64.6939 10.1952 65.1936 10.1404 65.5776 9.92858C65.9708 9.71014 66.2048 9.376 66.2796 8.92619C66.3518 8.49215 66.2484 8.1384 65.9695 7.86492C65.6906 7.59145 65.2078 7.27596 64.5212 6.91844C63.7083 6.49126 63.1781 6.16788 62.9308 5.94833C62.3625 5.46451 62.1381 4.86354 62.2575 4.14541C62.3744 3.44306 62.7109 2.93134 63.2671 2.61026C63.8247 2.28129 64.4625 2.17653 65.1806 2.29599C65.8277 2.40363 66.3598 2.6665 66.7769 3.0846C67.1952 3.49481 67.4755 3.97937 67.6177 4.53829L66.8543 4.81274C66.6278 3.83431 66.0253 3.26371 65.0467 3.10093C64.5338 3.0156 64.0985 3.07295 63.7408 3.27297C63.3831 3.47299 63.1669 3.79791 63.0921 4.24773C63.0238 4.65809 63.1146 4.98949 63.3646 5.24193C63.6146 5.49437 64.0493 5.7816 64.6689 6.10363C64.9517 6.2561 65.1523 6.36652 65.2707 6.43487C65.3983 6.49664 65.5759 6.59917 65.8034 6.74246C66.0402 6.87916 66.2112 6.99682 66.3165 7.09543C66.423 7.18614 66.548 7.31236 66.6914 7.47408C66.844 7.62923 66.9447 7.77979 66.9934 7.92576C67.0513 8.06515 67.0921 8.23414 67.1159 8.43273C67.1488 8.62473 67.1476 8.82727 67.1121 9.04035C66.9953 9.7427 66.645 10.2643 66.0611 10.6051C65.4786 10.938 64.7691 11.0349 63.9326 10.8958Z" fill="white"/>
<path d="M72.5193 13.3932C71.6741 13.0725 71.0774 12.5253 70.7293 11.7514C70.384 10.9701 70.3688 10.1644 70.6839 9.33411C70.9989 8.50386 71.5433 7.91467 72.3171 7.56653C73.0938 7.21092 73.9047 7.19346 74.7499 7.51414C75.3034 7.72415 75.7497 8.04751 76.0889 8.48421C76.4308 8.91344 76.6177 9.39076 76.6493 9.91617L75.9115 10.0341C75.8896 9.64076 75.7473 9.28299 75.4845 8.96081C75.232 8.63399 74.8963 8.39112 74.4775 8.23219C73.8567 7.99665 73.2508 8.0149 72.6598 8.28696C72.0717 8.55155 71.6599 8.99425 71.4243 9.61506C71.1888 10.2359 71.2019 10.8441 71.4636 11.4397C71.7282 12.0278 72.1709 12.4396 72.7917 12.6751C73.2106 12.8341 73.6215 12.8787 74.0244 12.8091C74.4301 12.732 74.7903 12.5607 75.105 12.295L75.5859 12.8882C75.1837 13.249 74.7086 13.4752 74.1605 13.5667C73.6124 13.6582 73.0653 13.6004 72.5193 13.3932Z" fill="white"/>
<path d="M81.3893 12.0673C82.0773 11.6291 82.8066 11.6387 83.5771 12.0961L83.185 12.7565C82.7172 12.4788 82.2469 12.3857 81.774 12.4771C81.3011 12.5685 80.889 12.91 80.5378 13.5016L78.8349 16.3702L78.1539 15.966L81.2166 10.8065L81.8977 11.2108L81.3893 12.0673Z" fill="white"/>
<path d="M87.9719 22.3649C87.1193 22.4176 86.3614 22.1548 85.6981 21.5765C85.0348 20.9982 84.6681 20.2805 84.5981 19.4235C84.5393 18.5657 84.8017 17.8021 85.3853 17.1327C85.9688 16.4634 86.6869 16.1024 87.5395 16.0497C88.4033 15.9962 89.1669 16.2586 89.8302 16.8369C90.4935 17.4152 90.8546 18.1332 90.9133 18.9911C90.9833 19.8481 90.7266 20.6113 90.143 21.2807C89.5595 21.95 88.8358 22.3114 87.9719 22.3649ZM85.3859 19.378C85.43 20.0214 85.7023 20.5613 86.2028 20.9976C86.7032 21.434 87.2752 21.6301 87.9186 21.5861C88.5672 21.536 89.1097 21.2607 89.546 20.7602C89.9824 20.2597 90.1785 19.6878 90.1345 19.0444C90.0957 18.395 89.826 17.8521 89.3255 17.4158C88.825 16.9794 88.2505 16.7863 87.6018 16.8364C86.9585 16.8804 86.4186 17.1527 85.9823 17.6532C85.5459 18.1537 85.3471 18.7286 85.3859 19.378Z" fill="white"/>
<path d="M90.6322 26.5069L97.44 20.994L97.9384 21.6095L91.1307 27.1224L90.6322 26.5069Z" fill="white"/>
<path d="M94.106 31.351L101.58 26.7811L101.993 27.4568L94.5192 32.0267L94.106 31.351Z" fill="white"/>
<path d="M104.894 43.8294L104.435 42.1634L100.929 43.1283C100.613 43.2154 100.403 43.3397 100.298 43.5013C100.201 43.6608 100.182 43.865 100.242 44.114C100.31 44.3608 100.403 44.6672 100.52 45.0332L99.8492 45.2179C99.5029 44.442 99.393 43.8167 99.5196 43.3421C99.6483 42.8752 100.048 42.5494 100.719 42.3647L104.225 41.3998L103.89 40.185L104.631 39.9811L104.965 41.196L106.354 40.8138L106.795 41.5137L105.176 41.9596L105.634 43.6256L104.894 43.8294Z" fill="white"/>
<path d="M101.753 54.3289C101.107 53.7702 100.749 53.0522 100.68 52.1749C100.61 51.2977 100.85 50.5283 101.4 49.8669C101.958 49.2128 102.679 48.8507 103.565 48.7806C104.45 48.7104 105.216 48.9547 105.862 49.5135C106.516 50.0795 106.879 50.8012 106.948 51.6785C107.017 52.5557 106.773 53.3214 106.215 53.9755C105.666 54.637 104.948 55.0027 104.063 55.0728C103.178 55.143 102.408 54.895 101.753 54.3289ZM101.994 50.3855C101.576 50.8761 101.393 51.4524 101.445 52.1143C101.498 52.7762 101.769 53.3165 102.26 53.735C102.758 54.153 103.339 54.3357 104 54.2833C104.662 54.2309 105.203 53.9594 105.621 53.4688C106.048 52.9776 106.235 52.401 106.182 51.7391C106.13 51.0772 105.854 50.5372 105.356 50.1193C104.865 49.7007 104.289 49.5177 103.627 49.5701C102.965 49.6225 102.421 49.8943 101.994 50.3855Z" fill="white"/>
<path d="M100.425 66.107L99.3802 70.0511L98.6146 69.8483L99.8741 65.0923L107.994 67.2426L106.75 71.9407L105.984 71.7379L107.014 67.8519L104.137 67.09L103.184 70.6861L102.419 70.4833L103.371 66.8873L100.425 66.107Z" fill="white"/>
<path d="M94.906 77.999L95.324 77.1482L98.3682 76.5581L96.975 73.7878L97.3931 72.937L99.1454 76.4185L102.709 75.7228L102.291 76.5737L99.4991 77.1137L100.778 79.654L100.36 80.5048L98.7274 77.2693L94.906 77.999Z" fill="white"/>
<path d="M95.6263 87.5743C95.0997 88.2491 94.4121 88.636 93.5637 88.7349C92.7103 88.8401 91.9367 88.622 91.243 88.0806C90.5493 87.5391 90.1498 86.8417 90.0446 85.9883C89.9345 85.1413 90.1427 84.3803 90.6694 83.7055C91.324 82.8668 92.168 82.5005 93.2014 82.6068L90.3823 80.4066L90.8696 79.7823L97.4915 84.9505L97.0042 85.5748L96.0772 84.8513C96.4313 85.8279 96.281 86.7355 95.6263 87.5743ZM92.8846 83.2272C92.2445 83.3061 91.7203 83.6073 91.3117 84.1308C90.9032 84.6542 90.7384 85.2359 90.8173 85.876C90.9025 86.5209 91.2068 87.0477 91.7303 87.4562C92.2537 87.8647 92.8355 88.0296 93.4755 87.9506C94.1219 87.8766 94.6493 87.5779 95.0578 87.0545C95.4664 86.531 95.628 85.9468 95.5428 85.3019C95.4639 84.6618 95.1627 84.1376 94.6393 83.729C94.1158 83.3205 93.5309 83.1532 92.8846 83.2272Z" fill="white"/>
<path d="M86.2726 88.5687L92.1469 95.0671L91.5594 95.5982L85.685 89.0998L86.2726 88.5687Z" fill="white"/>
<path d="M77.8814 95.6123C78.0763 94.7806 78.546 94.1304 79.2907 93.6615C80.0354 93.1926 80.8282 93.0479 81.6692 93.2275C82.5076 93.418 83.1634 93.889 83.6366 94.6405C84.1097 95.3919 84.2489 96.1835 84.054 97.0152C83.8567 97.8579 83.3857 98.5137 82.641 98.9826C81.8963 99.4515 81.1048 99.5906 80.2663 99.4001C79.4253 99.2205 78.7683 98.755 78.2952 98.0036C77.822 97.2521 77.6841 96.4551 77.8814 95.6123ZM81.486 93.9951C80.8572 93.8522 80.2618 93.9576 79.6999 94.3114C79.138 94.6652 78.7856 95.1565 78.6427 95.7853C78.504 96.421 78.6116 97.0197 78.9654 97.5816C79.3192 98.1435 79.8105 98.4959 80.4393 98.6388C81.0724 98.7885 81.6699 98.6865 82.2318 98.3327C82.7937 97.9789 83.144 97.4842 83.2827 96.8486C83.4256 96.2197 83.3201 95.6244 82.9664 95.0625C82.6126 94.5006 82.1191 94.1448 81.486 93.9951Z" fill="white"/>
<path d="M74.292 101.905C74.2207 102.718 73.7692 103.291 72.9373 103.623L72.652 102.91C73.1571 102.708 73.5173 102.392 73.7326 101.961C73.948 101.53 73.9279 100.995 73.6723 100.357L72.4331 97.2593L73.1684 96.9651L75.3973 102.536L74.6619 102.83L74.292 101.905Z" fill="white"/>
<path d="M65.3929 105.694C64.5225 105.87 63.7581 105.702 63.0997 105.19C62.4351 104.688 62.0181 104.017 61.8486 103.178C61.8312 103.092 61.8145 102.968 61.7985 102.808L66.9623 101.765C66.7635 101.185 66.4167 100.762 65.922 100.494C65.421 100.236 64.8569 100.171 64.2295 100.297C63.7826 100.388 63.4165 100.555 63.1315 100.801C62.8401 101.055 62.6422 101.348 62.5377 101.68L61.7747 101.418C61.9495 100.95 62.2359 100.549 62.6338 100.216C63.0317 99.8824 63.5168 99.6579 64.0893 99.5423C65.0146 99.3554 65.826 99.4935 66.5235 99.9566C67.2209 100.42 67.66 101.098 67.8405 101.992C68.0179 102.87 67.8797 103.661 67.4261 104.365C66.9724 105.069 66.2947 105.512 65.3929 105.694ZM65.2409 104.941C65.8525 104.818 66.3289 104.53 66.6701 104.077C67.005 103.634 67.1531 103.114 67.1143 102.518L62.7269 103.404C62.9304 104.008 63.267 104.442 63.7366 104.706C64.2062 104.971 64.7076 105.049 65.2409 104.941Z" fill="white"/>
</svg>
